<svg width="32" height="32" viewBox="0 0 32 32" fill="none" xmlns="http://www.w3.org/2000/svg">
<g id="uim:instagram-alt">
<path id="Vector" d="M23.724 10.1573C23.5593 9.73004 23.3069 9.342 22.9831 9.0182C22.6593 8.6944 22.2713 8.44202 21.844 8.27732C21.2546 8.05944 20.6323 7.944 20.004 7.93599C18.9587 7.88799 18.644 7.87732 16 7.87732C13.356 7.87732 13.0427 7.88799 12 7.93599C11.3717 7.94273 10.7492 8.05775 10.16 8.27599C9.29467 8.60932 8.61333 9.29199 8.28 10.156C8.06133 10.7467 7.94667 11.3693 7.93867 11.996C7.89067 13.0413 7.88133 13.3547 7.88133 16C7.88133 18.6453 7.89067 18.96 7.93867 20.004C7.94533 20.632 8.06133 21.2547 8.27867 21.844C8.44344 22.2712 8.69585 22.6592 9.01964 22.983C9.34343 23.3068 9.73143 23.5592 10.1587 23.724C10.7493 23.9413 11.372 24.0573 11.9987 24.064C13.0427 24.112 13.356 24.1213 16.0013 24.1213C18.6467 24.1213 18.9613 24.112 20.0053 24.064C20.6337 24.0567 21.2562 23.9412 21.8453 23.7227C22.2726 23.5579 22.6606 23.3055 22.9844 22.9817C23.3082 22.6579 23.5606 22.2699 23.7253 21.8427C23.944 21.2547 24.0587 20.632 24.0667 20.0027C24.1147 18.9587 24.124 18.6453 24.124 16C24.124 13.3547 24.1147 13.0413 24.0667 11.9973C24.0594 11.3689 23.944 10.7465 23.7253 10.1573H23.724ZM16 21.0867C15.332 21.0867 14.6706 20.9551 14.0534 20.6995C13.4363 20.4438 12.8755 20.0691 12.4032 19.5968C11.9308 19.1245 11.5562 18.5637 11.3005 17.9466C11.0449 17.3294 10.9133 16.668 10.9133 16C10.9133 15.332 11.0449 14.6705 11.3005 14.0534C11.5562 13.4363 11.9308 12.8755 12.4032 12.4032C12.8755 11.9308 13.4363 11.5561 14.0534 11.3005C14.6706 11.0449 15.332 10.9133 16 10.9133C17.3491 10.9133 18.6429 11.4492 19.5968 12.4032C20.5508 13.3571 21.0867 14.6509 21.0867 16C21.0867 17.3491 20.5508 18.6429 19.5968 19.5968C18.6429 20.5507 17.3491 21.0867 16 21.0867ZM21.288 11.9C20.9796 11.8897 20.6874 11.7599 20.4729 11.5381C20.2584 11.3163 20.1385 11.0199 20.1385 10.7113C20.1385 10.4028 20.2584 10.1063 20.4729 9.88453C20.6874 9.66274 20.9796 9.53298 21.288 9.52265C21.5964 9.53208 21.8904 9.66101 22.1056 9.8822C22.3207 10.1034 22.4415 10.3995 22.4423 10.7081C22.4432 11.0167 22.3241 11.3135 22.1102 11.5359C21.8963 11.7583 21.6044 11.8888 21.296 11.9H21.288Z" fill="#0E2033"/>
<path id="Vector_2" d="M16 12.6974C15.3468 12.6974 14.7083 12.8911 14.1651 13.254C13.622 13.6169 13.1987 14.1327 12.9487 14.7362C12.6988 15.3397 12.6334 16.0037 12.7608 16.6444C12.8882 17.285 13.2028 17.8735 13.6647 18.3354C14.1265 18.7973 14.715 19.1118 15.3557 19.2393C15.9963 19.3667 16.6604 19.3013 17.2639 19.0513C17.8674 18.8013 18.3832 18.378 18.7461 17.8349C19.109 17.2918 19.3027 16.6533 19.3027 16.0001C19.3027 15.1244 18.9549 14.2845 18.3358 13.6652C17.7167 13.0459 16.877 12.6977 16.0013 12.6974H16Z" fill="#0E2033"/>
<path id="Vector_3" d="M29.24 9.42663C29.228 8.39572 29.0386 7.37457 28.68 6.40796C28.4192 5.70124 28.0032 5.06201 27.4627 4.53729C26.938 3.99667 26.2988 3.58067 25.592 3.31996C24.6247 2.96216 23.6033 2.77276 22.572 2.75996C20.856 2.68529 20.3427 2.66663 16 2.66663C11.66 2.66663 11.144 2.68263 9.42933 2.75996C8.39804 2.77247 7.37655 2.96188 6.40933 3.31996C5.70223 3.58002 5.06283 3.99611 4.53867 4.53729C3.99909 5.06278 3.58326 5.70179 3.32133 6.40796C2.96359 7.37526 2.77418 8.3967 2.76133 9.42796C2.68533 11.144 2.66667 11.6586 2.66667 16.0013C2.66667 20.344 2.68267 20.8586 2.76133 22.5733C2.77467 23.604 2.96267 24.6266 3.32133 25.5933C3.58133 26.3 3.99733 26.94 4.53733 27.4626C5.06237 28.0028 5.70151 28.4187 6.408 28.68C7.37501 29.0388 8.39664 29.2282 9.428 29.24C11.1427 29.3186 11.6587 29.3333 16 29.3333C20.3427 29.3333 20.8573 29.3173 22.5733 29.24C23.6042 29.228 24.6254 29.0386 25.592 28.68C26.2937 28.4095 26.9309 27.9951 27.4628 27.4635C27.9946 26.9319 28.4092 26.2948 28.68 25.5933C29.0373 24.6253 29.2267 23.604 29.24 22.5733C29.3173 20.8573 29.3333 20.3413 29.3333 16C29.3333 11.6573 29.3173 11.144 29.24 9.42663ZM25.8467 20.084C25.8309 20.906 25.6753 21.7194 25.3867 22.4893C25.1321 23.1474 24.7429 23.745 24.2439 24.2439C23.745 24.7428 23.1474 25.1321 22.4893 25.3866C21.7198 25.6748 20.9069 25.8303 20.0853 25.8466C19.028 25.896 18.6907 25.9066 16 25.9066C13.3093 25.9066 12.9733 25.8946 11.916 25.8466C11.0944 25.8302 10.2816 25.6747 9.512 25.3866C8.85365 25.1323 8.25572 24.7432 7.75655 24.2442C7.25738 23.7453 6.86798 23.1475 6.61333 22.4893C6.32503 21.7193 6.16949 20.906 6.15333 20.084C6.10667 19.028 6.09333 18.6906 6.09333 16C6.09333 13.3093 6.10533 12.972 6.15333 11.916C6.16949 11.0939 6.32503 10.2806 6.61333 9.51063C6.86791 8.85235 7.25728 8.25457 7.75646 7.75561C8.25564 7.25666 8.85361 6.86757 9.512 6.61329C10.2816 6.32514 11.0944 6.1696 11.916 6.15329C12.9733 6.10396 13.312 6.09329 16.0013 6.09329C18.6907 6.09329 19.028 6.10529 20.0853 6.15329C20.9074 6.16924 21.7207 6.32479 22.4907 6.61329C23.1485 6.86802 23.7459 7.25731 24.2445 7.75623C24.7432 8.25514 25.1322 8.8527 25.3867 9.51063C25.676 10.2813 25.8307 11.0933 25.8467 11.916C25.8947 12.972 25.9067 13.3093 25.9067 16C25.9067 18.6906 25.8947 19.0266 25.8467 20.084Z" fill="#0E2033"/>
</g>
</svg>
