<svg width="32" height="32" viewBox="0 0 32 32" fill="none" xmlns="http://www.w3.org/2000/svg">
<g id="uim:twitter-alt">
<path id="Vector" d="M27.3 10.4067C27.3133 10.6534 27.3133 10.9 27.3133 11.1334C27.3101 12.6513 27.0887 14.161 26.656 15.616C25.7435 18.9696 23.7399 21.9237 20.9615 24.0117C18.1832 26.0998 14.7884 27.2028 11.3133 27.1467C8.25476 27.1501 5.26038 26.2694 2.69067 24.6107C3.13611 24.6655 3.58453 24.6927 4.03333 24.692C6.56461 24.6944 9.02293 23.8442 11.012 22.2787C9.84051 22.2567 8.70505 21.8698 7.76387 21.1719C6.82268 20.4741 6.12265 19.4999 5.76133 18.3854C6.11026 18.4451 6.46335 18.4772 6.81733 18.4814C7.32227 18.4832 7.82497 18.4141 8.31067 18.276C7.10765 18.0375 6.01622 17.4106 5.20399 16.4917C4.39176 15.5727 3.90367 14.4126 3.81467 13.1894C3.79212 13.0488 3.78319 12.9063 3.788 12.764V12.696C4.5692 13.1306 5.44372 13.3703 6.33733 13.3947C5.5676 12.8821 4.93672 12.187 4.50096 11.3713C4.06521 10.5556 3.83813 9.64479 3.84 8.72002C3.83913 7.7241 4.09933 6.74535 4.59467 5.88135C6.00674 7.62144 7.76948 9.04461 9.76812 10.0582C11.7668 11.0717 13.9565 11.653 16.1947 11.764C15.9123 10.5579 16.036 9.29233 16.5464 8.16368C17.0569 7.03503 17.9256 6.10642 19.0178 5.52197C20.1099 4.93751 21.3645 4.72989 22.5867 4.93133C23.8089 5.13277 24.9305 5.73199 25.7773 6.63602C27.0398 6.38702 28.2502 5.92342 29.356 5.26535C29.4035 6.21992 29.2442 7.17348 28.8891 8.06083C28.5341 8.94817 27.9929 9.74836 27.3 10.4067Z" fill="#0E2033"/>
</g>
</svg>
